<?xml version="1.0" encoding="UTF-8"?>
<svg id="Layer_1" data-name="Layer 1" xmlns="http://www.w3.org/2000/svg" viewBox="0 0 217.71 34.02">
  <defs>
    <style>
      .cls-1 {
        fill: #000;
        stroke-width: 0px;
      }
    </style>
  </defs>
  <rect class="cls-1" x="138.01" width="34.02" height="34.02"/>
  <polygon class="cls-1" points="54.09 34.02 73.73 0 34.45 0 54.09 34.02"/>
  <rect class="cls-1" x="114.59" width="17.01" height="34.02"/>
  <polygon class="cls-1" points="178.43 0 198.07 34.02 217.71 0 178.43 0"/>
  <path class="cls-1" d="M17.01,0C7.61,0,0,7.61,0,17.01h0c0,9.39,7.61,17.01,17.01,17.01s17.01-7.61,17.01-17.01h0C34.02,7.61,26.4,0,17.01,0Z"/>
  <polygon class="cls-1" points="84.14 0 74.17 9.96 74.17 24.05 84.14 34.02 98.23 34.02 108.19 24.05 108.19 9.96 98.23 0 84.14 0"/>
</svg>