<?xml version="1.0" encoding="UTF-8"?>
<svg id="Layer_1" data-name="Layer 1" xmlns="http://www.w3.org/2000/svg" viewBox="0 0 221.24 28.35">
  <defs>
    <style>
      .cls-1 {
        fill: #000;
        stroke-width: 0px;
      }
    </style>
  </defs>
  <path class="cls-1" d="M72.83.06c-.11.04-.21.15-.32.32l-11.14,19.69c-.11.19-.2.38-.29.59s-.17.42-.25.63c-.15-.43-.32-.83-.52-1.2L48.87.38c-.11-.17-.22-.28-.33-.32-.11-.04-.26-.06-.45-.06h-1.4v28.35h1.78V4.19c0-.36-.02-.73-.06-1.12l11.46,19.83c.2.35.47.52.8.52h.32c.35,0,.61-.17.8-.52l11.16-19.81c-.04.39-.06.75-.06,1.1v24.16h1.8V0h-1.42c-.19,0-.33.02-.44.06Z"/>
  <path class="cls-1" d="M113.11,23.78c0,.37.02.76.06,1.16L94.82.38c-.12-.16-.23-.26-.34-.31-.11-.05-.25-.07-.44-.07h-1v28.35h1.78V4.49c0-.36-.02-.74-.06-1.14l18.43,24.6c.19.27.43.4.74.4h.98V0h-1.8v23.78Z"/>
  <rect class="cls-1" x="133.26" width="2.06" height="28.35"/>
  <path class="cls-1" d="M172.87,17.32c0,1.31-.19,2.52-.58,3.65-.39,1.13-.95,2.11-1.69,2.94-.74.83-1.64,1.48-2.7,1.95-1.06.47-2.27.7-3.61.7s-2.55-.24-3.61-.71c-1.06-.48-1.96-1.13-2.69-1.96-.73-.83-1.29-1.81-1.68-2.94-.39-1.13-.58-2.35-.58-3.65V0h-2.04v17.32c0,1.54.24,2.99.73,4.33.49,1.34,1.19,2.51,2.11,3.5.92,1,2.03,1.78,3.35,2.35,1.31.57,2.79.85,4.42.85s3.11-.28,4.42-.85c1.31-.57,2.43-1.35,3.35-2.35.92-1,1.62-2.16,2.11-3.5.49-1.34.73-2.78.73-4.33V0h-2.02v17.32Z"/>
  <path class="cls-1" d="M219.82,0c-.19,0-.33.02-.44.06-.11.04-.21.15-.32.32l-11.14,19.69c-.11.19-.2.38-.29.59-.09.21-.17.42-.25.63-.15-.43-.32-.83-.52-1.2L195.42.38c-.11-.17-.22-.28-.33-.32-.11-.04-.26-.06-.45-.06h-1.4v28.35h1.78V4.19c0-.36-.02-.73-.06-1.12l11.46,19.83c.2.35.47.52.8.52h.32c.35,0,.61-.17.8-.52l11.16-19.81c-.04.39-.06.75-.06,1.1v24.16h1.8V0h-1.42Z"/>
  <path class="cls-1" d="M14.17,0C6.35,0,0,6.35,0,14.17h0c0,7.83,6.35,14.17,14.17,14.17s14.17-6.35,14.17-14.17h0C28.35,6.35,22,0,14.17,0Z"/>
</svg>