<?xml version="1.0" encoding="UTF-8"?>
<svg id="Layer_1" data-name="Layer 1" xmlns="http://www.w3.org/2000/svg" viewBox="0 0 217.71 34.02">
  <defs>
    <style>
      .cls-1 {
        fill: #000;
        stroke-width: 0px;
      }
    </style>
  </defs>
  <path class="cls-1" d="M138.01,34.02h34.02V0h-34.02v34.02ZM140.25,2.24h29.53v29.53h-29.53V2.24Z"/>
  <path class="cls-1" d="M54.09,34.02L73.73,0h-39.28l19.64,34.02ZM54.09,29.68L38.21,2.17h31.76l-15.88,27.5Z"/>
  <path class="cls-1" d="M114.59,34.02h18.13V0h-18.13v34.02ZM116.84,2.24h13.65v29.53h-13.65V2.24Z"/>
  <path class="cls-1" d="M178.43,0l19.64,34.02L217.71,0h-39.28ZM182.19,2.17h31.76l-15.88,27.5-15.88-27.5Z"/>
  <path class="cls-1" d="M17.01,0C7.63,0,0,7.63,0,17.01s7.63,17.01,17.01,17.01,17.01-7.63,17.01-17.01S26.39,0,17.01,0ZM17.01,31.77c-8.14,0-14.77-6.62-14.77-14.77S8.87,2.24,17.01,2.24s14.77,6.62,14.77,14.77-6.62,14.77-14.77,14.77Z"/>
  <path class="cls-1" d="M84.14,0l-9.96,9.96v14.09l9.96,9.96h14.09l9.96-9.96v-14.09L98.22,0h-14.09ZM105.95,23.12l-8.65,8.65h-12.23l-8.65-8.65v-12.23l8.65-8.65h12.23l8.65,8.65v12.23Z"/>
</svg>